<?xml version="1.0" encoding="UTF-8" standalone="no"?>
<!-- Created with Inkscape (http://www.inkscape.org/) -->

<svg
   width="100"
   height="100"
   viewBox="0 0 26.458332 26.458332"
   version="1.1"
   id="svg2613"
   inkscape:version="1.2.2 (b0a8486541, 2022-12-01)"
   sodipodi:docname="logo.svg"
   xmlns:inkscape="http://www.inkscape.org/namespaces/inkscape"
   xmlns:sodipodi="http://sodipodi.sourceforge.net/DTD/sodipodi-0.dtd"
   xmlns="http://www.w3.org/2000/svg"
   xmlns:svg="http://www.w3.org/2000/svg">
  <sodipodi:namedview
     id="namedview2615"
     pagecolor="#ffffff"
     bordercolor="#000000"
     borderopacity="0.25"
     inkscape:showpageshadow="2"
     inkscape:pageopacity="0.0"
     inkscape:pagecheckerboard="0"
     inkscape:deskcolor="#d1d1d1"
     inkscape:document-units="px"
     showgrid="false"
     inkscape:zoom="3.1072953"
     inkscape:cx="55.031782"
     inkscape:cy="75.306649"
     inkscape:window-width="945"
     inkscape:window-height="1012"
     inkscape:window-x="0"
     inkscape:window-y="0"
     inkscape:window-maximized="1"
     inkscape:current-layer="layer1" />
  <defs
     id="defs2610" />
  <g
     inkscape:label="Слой 1"
     inkscape:groupmode="layer"
     id="layer1">
    <path
       id="path4953"
       style="fill:#ffffff;fill-opacity:1;stroke-width:0.195297"
       d="M 13.236146,0.04961328 C 5.9304426,0.04961328 0.01530424,5.8561619 0.00237927,13.02486 H -7.25e-7 V 23.069107 H 0.00237927 c 0.00343997,1.6258 1.34793463,2.942698 3.00602913,2.942698 H 13.237521 c 7.307003,-0.005 13.22081,-5.810397 13.22081,-12.975245 0,-7.1686984 -5.921597,-12.97534672 -13.233775,-12.97534672 z m 2.689529,5.33904862 -0.0013,0.004 c 2.221574,0 4.319024,1.6684995 4.319024,3.9701987 0,0.2135 0.0013,0.427 -0.0345,0.6691504 -0.0615,0.612299 -0.63204,1.052399 -1.25328,0.966049 -0.621245,-0.0875 -1.042815,-0.66585 -0.92792,-1.2711994 0.0105,-0.069 0.0145,-0.178 0.0145,-0.3645 0,-1.3052495 -1.088879,-1.8091992 -2.118244,-1.8091992 -1.02911,0 -1.95649,0.8487497 -1.957945,1.8091992 0.0175,1.1105494 0,2.2125994 0,3.3213994 l 1.910205,-0.015 c 1.491404,-0.03 1.508059,2.172449 0.017,2.162099 l -1.926895,0.015 c -0.0055,0.89325 0.0065,0.73175 0.0026,1.1816 0,0 0.016,1.09265 -0.017,1.920549 -0.23055,2.4322 -2.341819,4.375849 -4.8787081,4.375849 -2.6894093,0 -4.9045188,-2.155649 -4.9045188,-4.799799 0.08075,-2.719149 2.2913795,-4.857898 5.0764188,-4.833348 l 1.5532991,-0.01 v 2.158149 l -1.5532991,0.015 h -0.008 c -1.5301548,0.045 -2.8419893,1.0639 -2.8665493,2.671349 0,1.46425 1.2062998,2.6377 2.7036193,2.6377 1.4952641,0 2.6920291,-1.06715 2.6920291,-2.6352 l -0.0027,-8.1740474 c 9.65e-4,-0.1515 0.0055,-0.2724997 0.023,-0.4399997 0.2524,-1.9992995 2.075484,-3.522849 4.139379,-3.522849 z" />
    <path
       style="fill:#51a2da;fill-opacity:1;stroke-width:0.195297"
       d="m 15.925676,5.3886624 -0.0013,0.004 c 2.221574,0 4.319024,1.668499 4.319024,3.970198 0,0.2135 0.0013,0.427 -0.0345,0.6691506 -0.0615,0.612299 -0.63204,1.052399 -1.25328,0.966049 -0.621245,-0.0875 -1.042815,-0.66585 -0.92792,-1.2711996 0.0105,-0.069 0.0145,-0.178 0.0145,-0.3645 0,-1.305249 -1.088879,-1.809199 -2.118244,-1.809199 -1.02911,0 -1.95649,0.84875 -1.957945,1.809199 0.0175,1.1105496 0,2.2125996 0,3.3213996 l 1.910205,-0.015 c 1.491404,-0.03 1.508059,2.172449 0.017,2.162099 l -1.926895,0.015 c -0.0055,0.89325 0.0065,0.73175 0.0026,1.1816 0,0 0.016,1.09265 -0.017,1.920549 -0.23055,2.4322 -2.341819,4.375849 -4.878708,4.375849 -2.6894093,0 -4.9045188,-2.155649 -4.9045188,-4.799799 0.08075,-2.719149 2.2913795,-4.857898 5.0764188,-4.833348 l 1.553299,-0.01 v 2.158149 l -1.553299,0.015 h -0.008 c -1.5301548,0.045 -2.8419893,1.0639 -2.8665493,2.671349 0,1.46425 1.2062998,2.6377 2.7036193,2.6377 1.495264,0 2.692029,-1.06715 2.692029,-2.6352 l -0.0027,-8.1740476 c 9.65e-4,-0.1515 0.0055,-0.272499 0.023,-0.439999 0.2524,-1.9993 2.075484,-3.522849 4.139379,-3.522849 z"
       id="path2855" />
  </g>
</svg>
